<svg width="120" height="83" viewBox="0 0 120 83" fill="none" xmlns="http://www.w3.org/2000/svg">
<path id="Vector" d="M26.3437 29.97C31.5302 29.97 36.6003 31.508 40.9128 34.3895C45.2253 37.271 48.5864 41.3666 50.5713 46.1584C52.5561 50.9502 53.0754 56.2229 52.0635 61.3098C51.0517 66.3967 48.5541 71.0694 44.8867 74.7368C41.2192 78.4043 36.5466 80.9019 31.4597 81.9137C26.3727 82.9256 21.1 82.4062 16.3083 80.4214C11.5165 78.4366 7.42089 75.0754 4.53938 70.763C1.65788 66.4505 0.11988 61.3804 0.11988 56.1938L0 52.4476C0 38.5376 5.52571 25.1974 15.3615 15.3615C25.1974 5.52571 38.5376 0 52.4475 0V14.985C47.5257 14.9718 42.6501 15.9344 38.1026 17.8172C33.5552 19.7 29.426 22.4655 25.954 25.954C24.6046 27.3009 23.3597 28.7487 22.2303 30.2847C23.5714 30.0749 24.9426 29.9625 26.3362 29.9625L26.3437 29.97ZM93.7762 29.97C98.9628 29.97 104.033 31.508 108.345 34.3895C112.658 37.271 116.019 41.3666 118.004 46.1584C119.989 50.9502 120.508 56.2229 119.496 61.3098C118.484 66.3967 115.987 71.0694 112.319 74.7368C108.652 78.4043 103.979 80.9019 98.8922 81.9137C93.8053 82.9256 88.5326 82.4062 83.7408 80.4214C78.949 78.4366 74.8534 75.0754 71.9719 70.763C69.0904 66.4505 67.5524 61.3804 67.5524 56.1938L67.4326 52.4476C67.4326 38.5376 72.9583 25.1974 82.7941 15.3615C92.6299 5.52571 105.97 0 119.88 0V14.985C114.958 14.9718 110.083 15.9344 105.535 17.8172C100.988 19.7 96.8586 22.4655 93.3866 25.954C92.0372 27.3009 90.7923 28.7487 89.6628 30.2847C91.004 30.0749 92.3751 29.97 93.7762 29.97Z" fill="#C85D5D"/>
</svg>
